<?xml version="1.0" encoding="UTF-8"?>
<svg version="1.0" viewBox="0 0 325 720" xmlns="http://www.w3.org/2000/svg" xmlns:cc="http://creativecommons.org/ns#" xmlns:dc="http://purl.org/dc/elements/1.1/" xmlns:rdf="http://www.w3.org/1999/02/22-rdf-syntax-ns#" fill="currentColor" stroke="currentColor">
<metadata>
<rdf:RDF>
<cc:Work rdf:about="">
<dc:format>image/svg+xml</dc:format>
<dc:title/>
</cc:Work>
</rdf:RDF>
</metadata>
<path d="m176.04 3.1973c0.34179 5e-3 0.68303 0.0208 1.0254 0.0449v398.79c-1.9263 5.214-4.4988 14.255-5.877 21.445-1.0564 5.5117-2.6451 17.446-3.5312 26.521-1.7191 17.605-5.2968 42.812-6.3086 44.449-0.33645 0.54439-0.91548 12.253-1.2871 26.02-0.62462 23.139-0.90809 26.014-3.748 38.031-8.182 34.623-10.519 53.074-10.703 84.5-0.0821 14.025-0.2242 26.471-0.31641 27.656-0.0922 1.1855-1.7089 3.9983-3.5918 6.252-3.4278 4.1028-4.8913 7.5411-6 14.092-0.34137 2.017-2.7073 6.224-5.584 9.9297-2.7455 3.5367-4.9922 6.9987-4.9922 7.6934 0 0.69461-1.0003 1.9641-2.2227 2.8203-2.6378 1.8476-4.9898 1.926-13.459 0.45117-7.1155-1.2391-9.3951-3.2774-14.658-13.119l-2.8379-5.3106 7.6445-15.982c12.17-25.446 13.875-30.85 13.877-43.982 9.4e-4 -8.4348-0.62578-13.673-2.6875-22.459-4.7505-20.245-6.0449-33.174-6.1035-61.041-0.0521-24.767 0.033-25.874 2.9102-38.5 2.6954-11.828 2.9658-14.667 3-31.5 0.0334-16.444-0.21024-19.278-2.1934-25.5-1.2271-3.85-2.913-11.725-3.7461-17.5-2.0689-14.341-3.2046-17.895-7.0938-22.205-7.0139-7.7731-10.674-17.883-13.469-37.203-2.9795-20.595-5.5495-35.59-9.9531-58.092-4.5003-22.996-6.3027-36.238-5.5547-40.805 4.4794-27.348 6.0023-38.784 8.5508-64.195 4.9322-49.181 8.1397-63.385 16.568-73.402 3.3764-4.0126 6.9994-5.8988 16.551-8.6152 13.073-3.7179 29.402-14.485 38.127-25.139 5.8399-7.1313 5.2108-11.34-5.1152-34.172-9.6249-21.282-10.02-26.01-3.2969-39.578 7.2086-14.548 22.533-28.626 32.84-30.172 1.0917-0.16371 2.1641-0.24057 3.2363-0.22461zm-59.662 239.3-1.1992 3c-2.5001 6.2494-4.1072 14.404-5.5117 27.975-2.0456 19.765-3.8446 58.842-3.0508 66.266 0.36692 3.4317 1.065 6.4849 1.5508 6.7852 1.8833 1.1639 3.9253-11.269 6.9043-42.025 3.1448-32.469 3.9482-53.561 2.2461-59zm61.713-239.3c-0.34179 0.00509-0.68303 0.020803-1.0254 0.044922v398.79c1.9263 5.214 4.4988 14.255 5.877 21.445 1.0564 5.5117 2.6451 17.446 3.5312 26.521 1.7191 17.605 5.2968 42.812 6.3086 44.449 0.33645 0.54439 0.91548 12.253 1.2871 26.02 0.62462 23.139 0.90809 26.014 3.748 38.031 8.182 34.623 10.519 53.074 10.703 84.5 0.0821 14.025 0.2242 26.471 0.31641 27.656 0.0922 1.1855 1.7089 3.9983 3.5918 6.252 3.4278 4.1028 4.8913 7.5411 6 14.092 0.34137 2.017 2.7073 6.224 5.584 9.9297 2.7455 3.5367 4.9922 6.9987 4.9922 7.6934 0 0.69461 1.0003 1.9641 2.2227 2.8203 2.6378 1.8476 4.9898 1.926 13.459 0.45117 7.1155-1.2391 9.3951-3.2774 14.658-13.119l2.8379-5.3106-7.6445-15.982c-12.17-25.446-13.875-30.85-13.877-43.982-9.4e-4 -8.4348 0.62578-13.673 2.6875-22.459 4.7505-20.245 6.0449-33.174 6.1035-61.041 0.0521-24.767-0.033-25.874-2.9102-38.5-2.6954-11.828-2.9658-14.667-3-31.5-0.0334-16.444 0.21024-19.278 2.1934-25.5 1.2271-3.85 2.913-11.725 3.7461-17.5 2.0689-14.341 3.2046-17.895 7.0938-22.205 7.0139-7.7731 10.674-17.883 13.469-37.203 2.9795-20.595 5.5495-35.59 9.9531-58.092 4.5003-22.996 6.3027-36.238 5.5547-40.805-4.4794-27.348-6.0023-38.784-8.5508-64.195-4.9322-49.181-8.1397-63.385-16.568-73.402-3.3764-4.0126-6.9994-5.8988-16.551-8.6152-13.073-3.7179-29.402-14.485-38.127-25.139-5.8399-7.1313-5.2108-11.34 5.1152-34.172 9.6249-21.282 10.02-26.01 3.2969-39.578-7.2086-14.548-22.533-28.626-32.84-30.172-1.0917-0.16371-2.1641-0.24057-3.2363-0.22461zm59.662 239.3 1.1992 3c2.5001 6.2494 4.1072 14.404 5.5117 27.975 2.0456 19.765 3.8446 58.842 3.0508 66.266-0.36692 3.4317-1.065 6.4849-1.5508 6.7852-1.8833 1.1639-3.9253-11.269-6.9043-42.025-3.1448-32.469-3.9482-53.561-2.2461-59z"/>
</svg>
